# xmcd CD database file
#
# Track frame offsets:
#	150
#	12768
#	21966
#	33741
#	47472
#	59708
#	70942
#	80398
#	89371
#	100181
#	113646
#	126322
#	136803
#	153799
#	165141
#	179345
#	190102
#	202422
#	214122
#	226056
#	238464
#	251045
#	263141
#	275806
#	286373
#	298479
#	309505
#
# Disc length: 4288 seconds
#
# Revision: 0
# Processed by: cddbd v1.5.2PL0 Copyright (c) Steve Scherf et al.
# Submitted via: CDex 1.84
#
DISCID=9110be1b
DTITLE=Various Artist - 101 Country Classics
DYEAR=2011
DGENRE=Country
TTITLE0=Johnny Cask - I Walk The Line
TTITLE1=Frankie Laine - Rawhide
TTITLE2=Tennessee Ernie Ford - Sixteen Tons
TTITLE3=Jimmy Dean - Big bad John
TTITLE4=Faron Young - I Fall To Pieces
TTITLE5=Stonewall Jackson - Waterloo
TTITLE6=Frank Ifield - I Remember You
TTITLE7=Jerry Lee Lewis - Jambalaya (On the Bayou)
TTITLE8=Ricky Nelson - Travelin' Man
TTITLE9=Claude King - Wolverton Mountainn
TTITLE10=Tex Ritter - High Noon (Do Not Forsake Me)
TTITLE11=Ferlin Husky - Wings Of A Dove
TTITLE12=Johnny Ashcroft - Little Boy Lost
TTITLE13=Don Gibson - Oh Lonesome Me
TTITLE14=Les Paul And Mary Ford - Tennessee Waltz
TTITLE15=Slim Whitman - Rose Marie
TTITLE16=Jack Scott And The Chantones
TTITLE17=Hank Thompson - Hangover Tavern
TTITLE18=Sonny James - Young Love
TTITLE19=Jeanne Black - He'll Have To Stay
TTITLE20=Walter Brennan And The Johnny Mann Singers - Old Rivers
TTITLE21=George Jones And Melba Montgomery - We Must Have Been Out Of Our Minds
TTITLE22=Wanda Jackson - Funny How Time Slips Away
TTITLE23=Statler Brothers, The - Flowers On The Wall
TTITLE24=Willis Brothers, The - Give Me Forth Acres (To Turn This Rig Around)
TTITLE25=Dave Dudley - Six Days On The Road
TTITLE26=Glen Campbell - By The Time I Get To Phoenix
EXTD=YEAR: 2011
EXTT0=
EXTT1=
EXTT2=
EXTT3=
EXTT4=
EXTT5=
EXTT6=
EXTT7=
EXTT8=
EXTT9=
EXTT10=
EXTT11=
EXTT12=
EXTT13=
EXTT14=
EXTT15=
EXTT16=
EXTT17=
EXTT18=
EXTT19=
EXTT20=
EXTT21=
EXTT22=
EXTT23=
EXTT24=
EXTT25=
EXTT26=
PLAYORDER=
